<?xml version="1.0" encoding="UTF-8" standalone="no"?>
<!-- Created with Inkscape (http://www.inkscape.org/) -->

<svg
   xmlns:dc="http://purl.org/dc/elements/1.1/"
   xmlns:cc="http://creativecommons.org/ns#"
   xmlns:rdf="http://www.w3.org/1999/02/22-rdf-syntax-ns#"
   xmlns:svg="http://www.w3.org/2000/svg"
   xmlns="http://www.w3.org/2000/svg"
   xmlns:sodipodi="http://sodipodi.sourceforge.net/DTD/sodipodi-0.dtd"
   xmlns:inkscape="http://www.inkscape.org/namespaces/inkscape"
   width="210mm"
   height="297mm"
   viewBox="0 0 744.09448819 1052.3622047"
   id="svg2"
   version="1.1"
   inkscape:version="0.91pre4 r13712"
   sodipodi:docname="capa.svg"
   inkscape:export-filename="C:\projetos\itexto\guias\git\capa.png"
   inkscape:export-xdpi="300"
   inkscape:export-ydpi="300">
  <defs
     id="defs4" />
  <sodipodi:namedview
     id="base"
     pagecolor="#ffffff"
     bordercolor="#666666"
     borderopacity="1.0"
     inkscape:pageopacity="0.0"
     inkscape:pageshadow="2"
     inkscape:zoom="0.7"
     inkscape:cx="41.046119"
     inkscape:cy="520.32317"
     inkscape:document-units="px"
     inkscape:current-layer="layer1"
     showgrid="false"
     inkscape:window-width="1920"
     inkscape:window-height="1017"
     inkscape:window-x="-8"
     inkscape:window-y="-8"
     inkscape:window-maximized="1" />
  <metadata
     id="metadata7">
    <rdf:RDF>
      <cc:Work
         rdf:about="">
        <dc:format>image/svg+xml</dc:format>
        <dc:type
           rdf:resource="http://purl.org/dc/dcmitype/StillImage" />
        <dc:title />
      </cc:Work>
    </rdf:RDF>
  </metadata>
  <g
     inkscape:label="Camada 1"
     inkscape:groupmode="layer"
     id="layer1">
    <g
       transform="matrix(0.9926977,0,0,0.95869796,1184.2897,374.06397)"
       id="g4239">
      <path
         style="fill:#cdcdcd"
         d="m -584.46588,532.61076 c -1.23971,-0.25497 -2.23958,-0.81131 -3.9495,-2.19755 -1.72583,-1.39913 -3.26649,-3.32336 -3.26654,-4.07979 l -3e-5,-0.5402 30.47475,-5.1e-4 c 30.67101,-5.2e-4 44.77524,-0.24751 57.58745,-1.00839 3.65632,-0.21714 11.37323,-0.48823 17.14868,-0.60242 7.85878,-0.15539 10.58213,-0.28878 10.824,-0.53016 0.24836,-0.24787 0.32501,-2.76875 0.33108,-10.88875 0.004,-5.81142 0.14642,-13.1054 0.31573,-16.20884 0.6674,-12.23379 1.17553,-34.65497 1.10441,-48.73182 -0.0473,-9.36785 -0.87707,-29.99146 -1.44466,-35.90766 -0.16443,-1.71387 -0.81676,-5.45287 -1.00392,-5.75427 -0.17836,-0.28721 -112.98901,-0.10941 -115.4975,0.18204 -1.1511,0.13374 -2.23567,0.33097 -2.41015,0.4383 -0.95547,0.58769 -0.98193,1.26212 -0.765,19.49699 0.11579,9.73354 0.27457,18.21673 0.35284,18.85152 0.0783,0.6348 0.26383,4.55899 0.41238,8.72043 0.14854,4.16144 0.43282,11.43274 0.63173,16.15845 0.21673,5.14918 0.39354,17.37816 0.44124,30.51798 0.0893,24.60315 0.25721,22.61967 -1.82542,21.56226 -1.24928,-0.6343 -4.20078,-3.32927 -4.88653,-4.46182 -0.26983,-0.44563 -0.58087,-1.56046 -0.6912,-2.47739 -0.11034,-0.91692 -0.22456,-10.90054 -0.25383,-22.1858 -0.0293,-11.28526 -0.1867,-23.17326 -0.34985,-26.41777 -1.21281,-24.1191 -1.43883,-32.39074 -1.68544,-61.68423 -0.0247,-2.93596 0.47955,-4.23415 1.91156,-4.92123 1.67405,-0.8032 7.99365,-1.03626 25.77143,-0.95042 9.14241,0.0441 34.94606,0.0388 57.34143,-0.0119 l 40.71885,-0.0922 1.04928,0.53311 c 1.55074,0.7879 3.79326,2.68931 4.83086,4.09605 1.36534,1.85109 2.0905,4.09397 2.84021,8.78456 0.97156,6.07869 1.03729,7.03789 2.00355,29.23909 0.46602,10.7073 -0.0352,45.45931 -0.86196,59.7606 -0.16717,2.89185 -0.31765,10.2923 -0.3344,16.44544 -0.0341,12.53222 -0.0453,12.62108 -1.63363,13.0356 -0.51459,0.13429 -6.61822,0.36794 -13.56362,0.51921 -6.9454,0.15128 -13.8816,0.38888 -15.41378,0.52802 -6.04744,0.54914 -23.88293,0.84948 -53.91136,0.90783 -17.29263,0.0336 -31.84704,-0.0224 -32.34314,-0.12441 z m 22.29228,-60.68441 c -2.36168,-1.26285 -2.706,-2.36127 -2.706,-8.63249 l 0,-4.8275 -0.85046,0 c -1.17101,0 -1.46897,-0.39632 -1.46897,-1.95394 0,-1.91282 0.14389,-2.14979 1.30531,-2.14979 l 0.99244,0 0.0753,-1.98774 0.0753,-1.98775 2.57714,0 2.57714,0 0.075,1.97471 0.075,1.97471 1.3424,0.0772 1.34239,0.0771 0.0772,1.77243 c 0.0882,2.0275 -0.0389,2.19322 -1.68786,2.19914 l -1.09529,0.004 0,4.45706 c 0,3.27661 0.0862,4.52823 0.32541,4.72582 0.17898,0.14783 0.78783,0.30623 1.353,0.35201 l 1.02759,0.0832 0.23158,1.61987 c 0.31658,2.21453 0.0534,2.45917 -2.75339,2.55964 -1.57084,0.0562 -2.31652,-0.0309 -2.89019,-0.33765 z m 12.16481,0.034 c -4.06292,-1.49967 -6.13276,-5.57783 -5.33934,-10.51998 0.56377,-3.51172 2.46981,-6.06079 5.2089,-6.96622 1.76368,-0.583 5.08018,-0.41277 6.52106,0.33471 2.53754,1.31639 3.77637,3.5781 3.94592,7.20401 0.0758,1.62086 0.0146,2.48929 -0.18965,2.69307 -0.19958,0.19907 -1.95295,0.34413 -5.18563,0.42901 l -4.8841,0.12824 0.45073,0.87946 c 0.72397,1.4126 1.65618,1.93876 3.36302,1.89818 0.80787,-0.0192 2.08753,-0.26955 2.84368,-0.55632 0.75616,-0.28677 1.52244,-0.46503 1.70285,-0.39613 0.18041,0.0689 0.53575,0.80808 0.78965,1.64263 0.549,1.80458 0.45558,1.98229 -1.49159,2.83754 -1.69518,0.74458 -6.16625,0.97103 -7.7355,0.3918 z m 4.87577,-11.7627 c -0.21465,-1.10554 -1.01979,-1.73127 -2.22765,-1.73127 -0.77727,0 -1.11709,0.16287 -1.64659,0.78913 -0.36696,0.43402 -0.6672,1.01111 -0.6672,1.28242 0,0.45069 0.20309,0.49329 2.35165,0.49329 l 2.35164,0 -0.16185,-0.83357 z m 27.54399,11.7059 c -2.35129,-1.27395 -2.706,-2.41946 -2.706,-8.73878 l 0,-4.69839 -0.85046,0 c -1.18156,0 -1.46897,-0.39659 -1.46897,-2.02703 l 0,-1.41148 -2.44828,3.95148 c -1.34656,2.17331 -2.44829,4.03871 -2.44829,4.14533 0,0.10663 1.1146,1.98636 2.47689,4.17718 1.47198,2.36722 2.41629,4.1405 2.32752,4.37073 -0.12014,0.31159 -0.68005,0.38741 -2.86095,0.38741 l -2.71159,0 -1.25469,-2.48739 -1.25469,-2.48738 -1.26053,2.42326 -1.26053,2.42326 -2.77043,0.0728 c -2.73686,0.0719 -2.77032,0.0657 -2.76188,-0.51296 0.005,-0.32218 1.09868,-2.31016 2.43108,-4.41776 2.07441,-3.28133 2.38278,-3.9079 2.14593,-4.36021 -0.15213,-0.29053 -1.25893,-2.11417 -2.45955,-4.05255 -1.28676,-2.07745 -2.12168,-3.68322 -2.03371,-3.91137 0.11912,-0.30892 0.66299,-0.38705 2.69453,-0.38705 2.97562,0 2.93746,-0.0252 4.18192,2.7572 0.45743,1.02272 0.90314,1.85922 0.99047,1.85888 0.0873,-2.6e-4 0.68065,-1.01025 1.3185,-2.24423 l 1.15971,-2.24361 2.53911,-0.0737 c 1.39998,-0.0406 2.67567,0.0391 2.8435,0.17769 0.18952,0.15653 0.44702,0.16164 0.68232,0.0135 0.20786,-0.13084 0.74996,-0.23965 1.20466,-0.24181 l 0.82673,-0.004 0.0753,-1.98774 0.0753,-1.98775 2.57714,0 2.57714,0 0.0753,1.98775 0.0753,1.98774 1.28411,0 c 1.16267,0 1.31,0.0667 1.55788,0.70533 0.34434,0.88713 0.14165,2.87679 -0.32289,3.16972 -0.19261,0.12146 -0.84309,0.2226 -1.44549,0.22476 l -1.09529,0.004 0,4.3112 c 0,3.05361 0.094,4.4339 0.32214,4.73185 0.1798,0.23478 0.77767,0.45478 1.353,0.49787 l 1.03086,0.0772 0.23158,1.61987 c 0.31705,2.21782 0.0535,2.46199 -2.75339,2.55096 -1.57188,0.0498 -2.31614,-0.0408 -2.89019,-0.35179 z m 11.29413,0.007 c -1.46752,-0.53666 -3.32849,-2.2255 -4.08111,-3.70362 -0.79571,-1.56277 -1.23909,-4.30777 -1.01402,-6.27799 0.54725,-4.79043 3.27009,-7.52284 7.74112,-7.76831 3.9215,-0.2153 6.68674,1.29195 8.27476,4.5103 0.66871,1.35524 0.72169,1.6886 0.72169,4.54043 0,2.6417 -0.0814,3.25331 -0.57443,4.31648 -0.85806,1.85032 -1.93532,3.06135 -3.46561,3.896 -1.22078,0.66583 -1.65593,0.75555 -3.9491,0.81427 -1.8191,0.0466 -2.89369,-0.0498 -3.6533,-0.32756 z m 4.87478,-4.25382 c 0.95191,-0.48538 1.35068,-1.75757 1.35323,-4.31713 0.004,-3.59368 -0.80182,-4.87318 -3.06751,-4.87318 -1.10328,0 -2.08948,0.78366 -2.50653,1.99175 -0.4772,1.38233 -0.39589,4.87601 0.13962,5.99913 0.73999,1.55196 2.42096,2.04598 4.08119,1.19943 z m -72.62003,4.08074 c -0.0684,-0.1774 -0.0937,-4.13045 -0.0563,-8.78455 l 0.068,-8.46201 2.28049,-0.0745 c 1.45978,-0.0477 2.41043,0.0328 2.64157,0.22376 0.49,0.40473 0.53913,16.62706 0.0518,17.11204 -0.43603,0.43394 -4.81756,0.42096 -4.98558,-0.0148 z m -0.01,-21.05669 c -0.0737,-0.19119 -0.0991,-1.08567 -0.0563,-1.98774 l 0.0777,-1.64014 2.28049,-0.0745 c 1.45978,-0.0477 2.41043,0.0329 2.64157,0.22377 0.45193,0.37327 0.49181,3.08054 0.0518,3.51842 -0.45605,0.45387 -4.81829,0.41908 -4.99524,-0.0398 z"
         id="path4192"
         inkscape:connector-curvature="0" />
      <path
         style="fill:#9f9f9e"
         d="m -584.46588,532.35473 c -1.7175,-0.3541 -4.19265,-2.13621 -6.02994,-4.34155 -1.79739,-2.15745 -4.70422,-1.96328 29.41747,-1.96509 30.55089,-0.002 45.01178,-0.2543 57.53475,-1.00535 3.61444,-0.21677 11.3575,-0.49056 17.20679,-0.60844 7.85817,-0.15835 10.71804,-0.2971 10.95285,-0.53139 0.24091,-0.24038 0.32089,-2.81114 0.3306,-10.6269 0.007,-5.67039 0.15137,-13.07982 0.32072,-16.4654 1.15961,-23.18326 1.40986,-46.9889 0.68752,-65.40323 -0.58825,-14.99616 -0.97758,-20.40039 -1.73687,-24.10943 l -0.31504,-1.53889 -53.73343,-0.0327 c -49.59851,-0.0301 -61.99778,0.0923 -64.04521,0.63222 -1.55073,0.40897 -1.54072,0.30323 -1.46012,15.43065 0.0402,7.54702 0.1816,16.49187 0.31418,19.87745 0.78098,19.94195 1.04417,26.47711 1.26539,31.4192 0.38814,8.67151 0.46424,49.05222 0.0927,49.17548 -0.76102,0.25246 -3.90384,-2.06537 -5.46405,-4.02975 -0.96367,-1.21331 -1.01723,-1.37925 -1.17858,-3.65155 -0.093,-1.30927 -0.20589,-11.38305 -0.25093,-22.38618 -0.0545,-13.31099 -0.22028,-22.96681 -0.49543,-28.85436 -1.11347,-23.82538 -1.28882,-29.09029 -1.40091,-42.06326 -0.0664,-7.68808 -0.1344,-14.95938 -0.15104,-16.15844 -0.039,-2.80917 0.5546,-4.511 1.74622,-5.00651 1.71528,-0.71327 8.73907,-0.94932 25.79896,-0.86703 9.21328,0.0444 35.01693,0.0396 57.34142,-0.0107 l 40.59,-0.0915 1.15972,0.58662 c 0.63784,0.32264 2.09472,1.52293 3.2375,2.66731 1.83513,1.83769 2.15749,2.30533 2.76021,4.0043 0.37534,1.058 0.97165,3.7126 1.32515,5.89912 0.91038,5.63109 1.05794,7.82722 1.98171,29.49557 0.45527,10.67885 -0.0522,45.75697 -0.85717,59.24763 -0.16413,2.75079 -0.31671,10.21748 -0.33906,16.59265 -0.0462,13.1703 0.0162,12.76111 -1.98274,13.00338 -0.6051,0.0733 -6.60882,0.25676 -13.3416,0.4076 -6.73279,0.15084 -13.49503,0.38751 -15.02721,0.52593 -6.04997,0.54658 -23.88644,0.84634 -53.91136,0.90604 -17.29263,0.0344 -31.84704,-0.0212 -32.34314,-0.12345 z m 22.67885,-60.46738 c -0.8647,-0.35119 -1.83727,-1.19661 -2.25889,-1.96358 -0.37027,-0.67359 -0.46925,-1.73891 -0.57596,-6.1995 l -0.12886,-5.38615 -1.03086,-0.12824 -1.03086,-0.12824 0,-1.66714 0,-1.66714 1.03086,-0.12824 1.03086,-0.12825 0.12886,-1.92362 0.12885,-1.92363 2.31943,0 2.31943,0 0.12886,1.92363 0.12885,1.92362 1.15972,0.0762 c 1.36427,0.0896 1.804,0.53991 1.804,1.84747 0,1.30755 -0.43973,1.75788 -1.804,1.84747 l -1.15972,0.0762 -0.0707,4.4614 c -0.0797,5.0322 0.0111,5.32249 1.70873,5.46347 0.93154,0.0773 0.94099,0.0899 1.17538,1.56126 0.17397,1.09207 0.1536,1.56559 -0.0772,1.79538 -0.33208,0.33062 -4.24801,0.54341 -4.92681,0.26772 z m 11.77824,-0.1835 c -2.34582,-0.86587 -4.19112,-2.81305 -4.87397,-5.14309 -0.4878,-1.66446 -0.39094,-5.4339 0.17991,-7.00152 0.69497,-1.90847 2.0929,-3.6117 3.61097,-4.39959 1.13926,-0.59129 1.58718,-0.66852 3.86571,-0.66654 2.14266,0.002 2.75093,0.0952 3.608,0.5536 2.42134,1.29507 3.52021,3.37314 3.68863,6.97558 0.0866,1.85195 0.0312,2.45287 -0.24189,2.62503 -0.19479,0.1228 -2.4638,0.22504 -5.04224,0.2272 -2.57845,0.002 -4.74787,0.10021 -4.82095,0.21789 -0.24627,0.39657 0.86773,2.23565 1.62328,2.67983 1.03581,0.60895 3.52255,0.57779 5.22352,-0.0654 0.91776,-0.34705 1.43567,-0.42516 1.64928,-0.24873 0.28587,0.23612 0.88408,2.13483 0.88408,2.80605 0,0.15693 -0.66683,0.59263 -1.48185,0.96822 -1.25378,0.57778 -1.89835,0.69441 -4.18786,0.75781 -1.85887,0.0515 -3.01236,-0.0382 -3.68462,-0.2863 z m 5.14447,-11.37798 c -0.27502,-1.71903 -1.95917,-2.57974 -3.5957,-1.83765 -0.71435,0.32392 -1.47215,1.48828 -1.47215,2.26195 0,0.51032 0.13207,0.53751 2.61086,0.53751 l 2.61086,0 -0.15387,-0.96181 z m 27.04036,11.1528 c -1.83681,-1.04382 -2.06571,-1.85874 -2.21335,-7.87959 -0.12281,-5.00807 -0.15307,-5.25849 -0.64429,-5.33202 -1.7558,-0.26282 -1.70539,-0.20303 -1.62281,-1.92459 l 0.0765,-1.59511 1.03086,-0.12824 1.03086,-0.12825 0.12886,-1.92362 0.12885,-1.92363 2.31943,0 2.31943,0 0.12886,1.92363 0.12885,1.92362 1.28359,0.0806 c 0.70598,0.0443 1.37104,0.21745 1.47792,0.38473 0.31911,0.49946 0.22765,2.6569 -0.12499,2.94817 -0.17996,0.14864 -0.8468,0.30704 -1.48186,0.35201 l -1.15466,0.0817 -0.0708,4.33141 c -0.0817,4.99724 0.0767,5.5432 1.60784,5.5432 1.06684,0 1.16794,0.14375 1.35247,1.9232 0.13878,1.33821 0.11556,1.40814 -0.55151,1.66054 -1.2853,0.48634 -4.03342,0.31675 -5.15005,-0.3178 z m 11.54481,0.18057 c -2.55554,-0.93583 -4.30636,-3.38804 -4.78415,-6.70071 -0.72388,-5.01893 1.49126,-9.24723 5.41229,-10.33108 1.41602,-0.39141 4.43352,-0.31881 5.78406,0.13917 1.64183,0.55675 3.36841,2.14779 4.23359,3.90123 0.67045,1.35877 0.72319,1.69012 0.72319,4.54345 0,2.66856 -0.0788,3.24832 -0.59258,4.36022 -0.70965,1.53579 -2.11977,3.04979 -3.53085,3.79097 -1.35619,0.71235 -5.63237,0.88749 -7.24555,0.29675 z m 5.30822,-4.17205 c 1.29468,-1.28849 1.68141,-4.29191 0.89291,-6.93438 -0.30108,-1.00902 -0.60409,-1.46472 -1.22414,-1.84098 -1.69995,-1.03158 -3.69152,-0.38166 -4.46324,1.4565 -0.21394,0.50959 -0.35534,1.77831 -0.35534,3.18834 0,3.61627 0.80926,4.85606 3.16974,4.85606 1.02961,0 1.38009,-0.12842 1.98007,-0.72554 z m -72.80758,4.00392 c -0.0707,-0.1833 -0.0978,-4.02562 -0.0604,-8.53851 l 0.0681,-8.20524 2.19057,0 2.19057,0 0,8.46394 0,8.46395 -2.13021,0.0746 c -1.56522,0.0548 -2.16428,-0.0138 -2.2587,-0.2587 z m 35.19431,-0.13646 c 0.005,-0.24687 1.09869,-2.17324 2.43108,-4.28084 2.07261,-3.27849 2.3827,-3.90829 2.1468,-4.36021 -0.15166,-0.29053 -1.25817,-2.12583 -2.45892,-4.07846 -1.37508,-2.23613 -2.09278,-3.64021 -1.93895,-3.7933 0.13433,-0.13369 1.33556,-0.20963 2.66941,-0.16877 l 2.42518,0.0743 1.14057,2.37247 c 0.62731,1.30486 1.2204,2.37247 1.31797,2.37247 0.0976,0 0.71003,-1.09647 1.36103,-2.43659 l 1.18365,-2.43659 2.58825,0 c 2.19623,0 2.58824,0.0619 2.58824,0.40866 0,0.22476 -0.97842,1.98488 -2.17427,3.91136 -1.19585,1.92649 -2.24613,3.68946 -2.33395,3.9177 -0.10233,0.26596 0.72474,1.83728 2.30314,4.37565 1.35454,2.17836 2.4628,4.10203 2.4628,4.2748 0,0.2322 -0.68912,0.29508 -2.64157,0.24105 l -2.64157,-0.0731 -1.1985,-2.29984 c -0.65918,-1.26491 -1.29944,-2.33333 -1.42281,-2.37425 -0.12336,-0.0409 -0.77199,1.02285 -1.44138,2.36396 l -1.21707,2.43837 -2.57884,0 c -2.28748,0 -2.57787,-0.0507 -2.57029,-0.44884 z m -35.20524,-20.92352 c -0.0767,-0.19889 -0.10385,-0.98266 -0.0604,-1.7417 l 0.0791,-1.38009 2.19057,0 2.19057,0 0,1.66714 0,1.66714 -2.13021,0.0746 c -1.6468,0.0576 -2.16184,-0.007 -2.26963,-0.28705 z"
         id="path4190"
         inkscape:connector-curvature="0" />
      <path
         style="fill:#ae807a"
         d="m -583.95242,532.2213 c -0.97879,-0.16181 -2.05186,-0.53632 -2.57714,-0.89943 -2.82994,-1.95625 -4.85683,-4.20358 -4.53771,-5.03122 0.12325,-0.31965 0.37994,-0.38001 1.12553,-0.26466 0.53122,0.0822 13.54876,0.17016 28.92786,0.1955 26.66216,0.0439 45.16279,-0.23823 53.60457,-0.81754 1.91352,-0.13132 7.82807,-0.35134 13.14342,-0.48894 16.69573,-0.43221 18.64172,-0.52833 19.06773,-0.94182 0.32857,-0.31892 0.37399,-1.77491 0.31739,-10.17661 -0.0363,-5.39244 0.0569,-11.44973 0.20717,-13.46065 0.80724,-10.80259 1.50006,-52.54632 1.05462,-63.5424 -0.8744,-21.58498 -1.31452,-27.58928 -2.25184,-30.72057 -0.12985,-0.43381 -2.16102,-0.45733 -42.57528,-0.49313 -73.89534,-0.0654 -74.6957,-0.0555 -76.22796,0.94365 -0.98087,0.63962 -1.25313,2.60808 -0.91151,6.59036 0.18733,2.18366 0.23568,6.05661 0.13392,10.72728 -0.159,7.29817 -0.042,11.7103 0.93883,35.39469 0.28332,6.84169 0.62606,15.61342 0.76164,19.49273 0.33667,9.63321 0.38398,42.81718 0.0615,43.13812 -0.69963,0.69629 -5.00227,-2.78405 -6.02023,-4.86967 l -0.58893,-1.20662 -0.19019,-25.00712 c -0.1046,-13.75391 -0.25442,-25.5842 -0.33292,-26.28953 -0.0785,-0.70533 -0.31842,-5.95682 -0.53315,-11.66999 -0.21474,-5.71316 -0.49687,-12.98446 -0.62697,-16.15844 -0.13009,-3.17398 -0.26627,-12.17655 -0.30262,-20.0057 -0.0621,-13.38078 -0.0377,-14.29103 0.40757,-15.17168 1.14685,-2.26843 -2.13325,-2.1709 69.85609,-2.07698 18.71006,0.0244 38.59916,0.009 44.198,-0.0348 5.59884,-0.0435 10.55527,0.0237 11.01428,0.14943 1.02651,0.28118 3.73365,2.41186 4.99596,3.93213 1.4016,1.68804 2.17532,3.92273 2.89176,8.35208 0.87831,5.43019 0.89732,5.62306 1.32473,13.44201 1.2133,22.19566 1.24342,37.8509 0.13641,70.91762 -0.14403,4.30251 -0.33278,8.11129 -0.41944,8.46395 -0.0867,0.35266 -0.14726,5.71958 -0.13469,11.92647 0.0217,10.71755 -0.0935,12.92639 -0.70608,13.53605 -0.4206,0.41858 -4.93739,0.66398 -17.81436,0.96783 -6.59104,0.15553 -13.37537,0.38377 -15.07628,0.5072 -7.54634,0.54761 -25.50201,0.85448 -52.05829,0.88971 -19.46727,0.0258 -29.14208,-0.0506 -30.28339,-0.23931 z m 22.35624,-60.52792 c -1.27218,-0.45179 -1.66489,-0.79932 -2.31969,-2.05284 -0.48546,-0.92932 -0.5607,-1.61653 -0.68988,-6.30099 l -0.14499,-5.25791 -0.96541,-0.0795 c -1.10548,-0.0911 -1.40364,-0.68861 -1.11299,-2.2305 0.13661,-0.72472 0.28579,-0.896 0.78043,-0.896 1.28758,0 1.42683,-0.19986 1.42683,-2.0479 0,-1.17997 0.11625,-1.83256 0.36273,-2.03614 0.2249,-0.18576 1.08177,-0.27079 2.255,-0.22377 l 1.89227,0.0758 0.12885,1.83898 c 0.0709,1.01144 0.22071,1.93001 0.33298,2.04128 0.11226,0.11126 0.75011,0.26477 1.41743,0.34113 l 1.21331,0.13883 0,1.41066 0,1.41066 -1.15466,0.0817 c -1.87604,0.13283 -1.86095,0.0891 -1.76517,5.11936 0.0835,4.3831 0.0963,4.4723 0.71794,4.97285 0.37738,0.30387 0.87537,0.46357 1.23327,0.39547 0.7684,-0.14618 1.09747,0.44432 1.09747,1.96933 0,1.12079 -0.0318,1.16778 -0.96642,1.42609 -1.28597,0.35542 -2.55904,0.32253 -3.7393,-0.0966 z m 12.47498,0.1075 c -1.6,-0.3368 -3.28411,-1.39844 -4.1935,-2.64349 -1.42497,-1.95095 -1.61317,-2.62323 -1.62862,-5.81784 -0.0129,-2.65622 0.0521,-3.08986 0.65324,-4.36022 0.93862,-1.98355 1.83569,-2.94096 3.53217,-3.76975 1.25809,-0.61463 1.76727,-0.71482 3.53174,-0.69498 2.38903,0.0269 3.48146,0.41395 4.98594,1.76667 1.52532,1.37145 2.14088,3.17731 2.0463,6.00317 l -0.0739,2.20928 -4.961,0.0697 c -4.93808,0.0693 -4.961,0.0723 -4.96004,0.64121 10e-4,0.83826 0.90319,2.16935 1.86511,2.75304 1.10995,0.67351 3.11189,0.666 4.95035,-0.0186 0.78307,-0.29159 1.52533,-0.46768 1.64946,-0.39133 0.33086,0.2035 0.89761,2.38093 0.73171,2.8112 -0.40724,1.05618 -5.59229,1.97594 -8.12891,1.44196 z m 4.40274,-11.28265 c -0.14491,-1.87372 -1.62392,-2.87113 -3.45003,-2.32663 -0.8122,0.24218 -1.11668,0.51944 -1.55384,1.41494 -0.87901,1.80063 -0.66328,1.96795 2.42712,1.88253 l 2.64618,-0.0731 -0.0694,-0.89769 z m 27.70685,11.17515 c -1.29808,-0.46099 -1.7316,-0.85325 -2.28774,-2.06999 -0.40154,-0.8785 -0.46974,-1.74654 -0.47459,-6.04019 -0.004,-3.55134 -0.0959,-5.10404 -0.31492,-5.32202 -0.17009,-0.16928 -0.69196,-0.30778 -1.15971,-0.30778 l -0.85046,0 0,-1.5389 c 0,-1.50686 0.0148,-1.53898 0.70872,-1.54283 1.2423,-0.007 1.47175,-0.3429 1.61071,-2.35873 l 0.12886,-1.86932 2.06171,0 2.06172,0 0.12885,1.86932 c 0.14669,2.12798 0.33829,2.3528 2.01015,2.35873 l 1.10815,0.004 -0.0773,1.47477 -0.0773,1.47478 -1.2226,0.0781 c -1.73738,0.11099 -1.80987,0.33931 -1.70253,5.36197 0.0871,4.07713 0.11136,4.24052 0.69868,4.71375 0.33462,0.26962 0.93106,0.49022 1.32543,0.49022 0.83446,0 1.02987,0.36669 1.02987,1.93254 0,1.07707 -0.038,1.13165 -0.96642,1.38825 -1.28597,0.35543 -2.55904,0.32253 -3.7393,-0.0966 z m 11.85329,0.10383 c -3.61513,-0.90836 -5.55851,-3.50378 -5.80168,-7.74824 -0.24387,-4.25672 1.17956,-7.25485 4.16611,-8.77493 1.32997,-0.67693 1.75868,-0.76408 3.7295,-0.7582 1.7406,0.005 2.50813,0.13207 3.51536,0.58106 2.51848,1.12269 4.00965,3.21911 4.53298,6.37286 0.70972,4.27696 -0.99363,8.23974 -4.20723,9.78799 -1.30674,0.62956 -4.44221,0.91455 -5.93504,0.53946 z m 3.6867,-3.71801 c 1.25459,-0.64567 1.87329,-2.20296 1.88304,-4.73965 0.011,-2.85701 -0.63895,-4.44277 -2.06369,-5.03522 -1.95679,-0.8137 -3.86373,0.19251 -4.47365,2.36056 -0.42334,1.50478 -0.21969,5.1126 0.34967,6.1948 0.78283,1.48795 2.71785,2.03615 4.30463,1.21951 z m -72.30689,3.41191 c -0.0707,-0.1833 -0.0978,-4.02562 -0.0604,-8.53851 l 0.0681,-8.20524 2.19057,0 2.19057,0 0,8.46394 0,8.46395 -2.13021,0.0746 c -1.56522,0.0548 -2.16428,-0.0138 -2.2587,-0.2587 z m 35.53578,-0.0747 c -0.0882,-0.22872 0.77202,-1.86896 2.10297,-4.0099 1.23872,-1.99257 2.30677,-3.83046 2.37344,-4.08421 0.0741,-0.28184 -0.73471,-1.84023 -2.07859,-4.0052 -1.2099,-1.94911 -2.27754,-3.74582 -2.37254,-3.99269 -0.15713,-0.40834 0.0517,-0.44884 2.31424,-0.44884 l 2.48696,0 1.18365,2.43659 c 0.651,1.34012 1.28461,2.43659 1.40802,2.43659 0.1234,0 0.77165,-1.09647 1.44055,-2.43659 l 1.21618,-2.43659 2.39013,0 c 1.8121,0 2.39012,0.0822 2.39012,0.33974 0,0.18686 -0.99883,1.9426 -2.21963,3.90164 -1.2208,1.95904 -2.2663,3.68293 -2.32334,3.83087 -0.057,0.14793 1.00441,2.04801 2.35878,4.22239 1.35438,2.17437 2.40178,4.11089 2.32756,4.30338 -0.10294,0.26698 -0.67069,0.33238 -2.39416,0.2758 l -2.25921,-0.0742 -1.28857,-2.50012 c -0.70872,-1.37507 -1.44145,-2.50039 -1.62831,-2.50071 -0.18685,-2.6e-4 -0.8477,1.08124 -1.46855,2.40348 -0.62085,1.32224 -1.31825,2.47641 -1.54977,2.56483 -0.23153,0.0884 -1.28489,0.16076 -2.34082,0.16076 -1.47394,0 -1.95453,-0.0899 -2.06911,-0.38705 z m -35.54671,-20.98531 c -0.0767,-0.19889 -0.10385,-0.98266 -0.0604,-1.7417 l 0.0791,-1.38009 2.19057,0 2.19057,0 0,1.66714 0,1.66714 -2.13021,0.0746 c -1.6468,0.0576 -2.16184,-0.007 -2.26963,-0.28705 z"
         id="path4188"
         inkscape:connector-curvature="0" />
      <path
         style="fill:#f64f3d"
         d="m -584.59474,532.10346 c -0.42523,-0.10839 -1.17662,-0.40614 -1.66976,-0.66168 -1.12273,-0.58177 -4.90194,-4.25054 -4.90198,-4.75871 -3e-5,-0.32935 3.7622,-0.37689 29.83042,-0.37689 28.40441,0 47.00026,-0.30432 54.82875,-0.89729 1.70091,-0.12883 7.8474,-0.34926 13.65885,-0.48984 15.75378,-0.38109 17.167,-0.45524 17.63817,-0.92543 0.35077,-0.35005 0.4025,-1.74405 0.40708,-10.97069 0.003,-5.81333 0.1453,-13.10887 0.31646,-16.21232 0.65525,-11.88064 1.17204,-34.71817 1.10566,-48.86006 -0.0431,-9.1725 -0.87413,-29.78891 -1.44232,-35.77941 -0.22399,-2.36159 -0.91889,-6.12589 -1.18283,-6.40745 -0.30441,-0.32471 -105.05494,-0.40808 -112.06764,-0.0892 -2.76399,0.12568 -5.44143,0.33978 -5.94987,0.47577 -1.65678,0.44312 -1.62544,0.13397 -1.55967,15.3825 0.0326,7.54702 0.16893,16.43416 0.30306,19.74921 0.13413,3.31504 0.41886,10.47092 0.63272,15.90196 0.21387,5.43103 0.49888,12.41379 0.63335,15.51723 0.29881,6.89613 0.4757,48.96304 0.20626,49.05243 -0.55415,0.18383 -1.05433,-0.0399 -2.48886,-1.11306 -2.25511,-1.6871 -3.40265,-3.17593 -3.69756,-4.79726 -0.13501,-0.74226 -0.2741,-10.61933 -0.31316,-22.23872 -0.0386,-11.49686 -0.20281,-23.55799 -0.36479,-26.8025 -1.21071,-24.25001 -1.46384,-33.51791 -1.68473,-61.68422 -0.0153,-1.94939 0.0839,-2.64173 0.49593,-3.46253 1.20429,-2.39891 -4.06733,-2.251 79.04472,-2.21774 45.72559,0.0183 45.80167,0.0192 46.84114,0.54696 0.57264,0.29075 1.84905,1.28711 2.83647,2.21413 2.64884,2.48685 3.35044,4.20893 4.37641,10.74192 0.7729,4.92149 1.00076,8.43376 1.83867,28.3414 0.49365,11.72851 -0.0165,44.59906 -0.97119,62.58191 -0.28078,5.2886 -0.36781,9.85836 -0.26864,14.10658 0.18151,7.7758 -0.0153,11.3378 -0.66216,11.98149 -0.4195,0.41747 -1.52425,0.48432 -12.49914,0.75629 -6.62143,0.16409 -13.95249,0.42462 -16.29125,0.57896 -4.91841,0.32458 -15.76529,0.8168 -17.65343,0.8011 -0.70871,-0.006 -16.42284,0.0394 -34.92028,0.10075 -18.49745,0.0613 -33.97963,0.0228 -34.40486,-0.0856 z m 23.48961,-60.31771 c -1.42521,-0.34698 -2.36594,-1.10551 -2.84316,-2.29249 -0.33258,-0.82723 -0.41588,-2.02888 -0.41588,-5.99926 0,-5.36654 -0.0147,-5.42452 -1.41743,-5.58203 -0.74867,-0.0841 -0.77559,-0.13349 -0.85043,-1.56159 l -0.0773,-1.47478 0.86332,0 c 1.24049,0 1.48183,-0.37984 1.48183,-2.33221 0,-1.96995 0.0627,-2.02801 2.19057,-2.02801 2.13095,0 2.19057,0.0557 2.19057,2.0479 0,2.01125 0.17798,2.24332 1.80906,2.35881 l 1.15466,0.0817 0,1.41066 0,1.41066 -1.28359,0.0806 c -0.70598,0.0443 -1.37103,0.21745 -1.47791,0.38472 -0.10688,0.16728 -0.1961,2.18726 -0.19827,4.48885 -0.005,5.06889 0.20533,5.67741 1.96328,5.68596 0.89554,0.004 1.11554,0.41671 1.12183,2.10263 0.003,0.68065 -0.12248,0.98111 -0.44749,1.07545 -1.03388,0.30011 -2.83581,0.36829 -3.76367,0.14239 z m 12.41026,0.0107 c -1.59992,-0.26844 -3.65656,-1.40569 -4.47624,-2.4752 -1.37933,-1.79977 -1.77184,-3.09093 -1.77944,-5.85348 -0.008,-2.98818 0.45013,-4.60436 1.80756,-6.37364 1.32357,-1.72513 3.12993,-2.51552 5.749,-2.51552 3.27367,0 5.12321,1.00724 6.43241,3.50302 0.59129,1.12722 0.67397,1.5928 0.6832,3.84725 l 0.0105,2.56483 -4.961,0.0697 -4.961,0.0697 0,0.66951 c 0,0.97341 0.90674,2.28015 1.91144,2.75463 1.15995,0.5478 3.30191,0.50818 5.04684,-0.0934 0.77959,-0.26875 1.48858,-0.40926 1.57554,-0.31223 0.23745,0.26491 0.74389,1.86049 0.74389,2.34367 0,0.60934 -2.03792,1.51323 -4.07177,1.80598 -1.93559,0.27862 -2.02245,0.2785 -3.71093,-0.005 z m 4.00377,-11.25139 c -0.0925,-1.9155 -2.05746,-3.09681 -3.78629,-2.27633 -0.88561,0.4203 -1.71249,1.74611 -1.71249,2.74577 0,0.52894 0.0915,0.5446 2.77042,0.47421 l 2.77043,-0.0728 -0.0421,-0.87084 z m 28.19308,11.24534 c -1.42292,-0.34764 -2.15991,-0.92069 -2.75349,-2.14101 -0.47627,-0.97912 -0.52848,-1.57483 -0.53204,-6.07023 -0.002,-2.74151 -0.0902,-5.11945 -0.19553,-5.28431 -0.10538,-0.16485 -0.59648,-0.33798 -1.09134,-0.38472 l -0.89975,-0.085 -0.0773,-1.47478 -0.0773,-1.47478 0.86332,0 c 1.24049,0 1.48183,-0.37984 1.48183,-2.33221 0,-1.96995 0.0627,-2.02801 2.19057,-2.02801 2.13095,0 2.19057,0.0557 2.19057,2.0479 0,2.01125 0.17798,2.24332 1.80906,2.35881 l 1.15466,0.0817 0,1.41066 0,1.41066 -1.35146,0.0775 c -1.69672,0.0973 -1.67367,0.0182 -1.56609,5.37241 0.0727,3.61781 0.14211,4.1812 0.57363,4.65506 0.30562,0.3356 0.80502,0.53911 1.32295,0.53911 0.92287,0 1.13997,0.39746 1.14631,2.0987 0.003,0.68065 -0.12248,0.98111 -0.44749,1.07545 -1.02666,0.29802 -2.83263,0.36901 -3.74113,0.14705 z m 11.33932,-0.0823 c -3.93603,-0.86479 -6.15186,-4.50922 -5.76808,-9.48692 0.41909,-5.43571 4.01946,-8.30163 9.49317,-7.55663 2.81732,0.38345 4.8574,2.05059 5.90768,4.82773 0.45162,1.19415 0.51819,1.84368 0.43372,4.23198 -0.0859,2.42909 -0.19343,2.9996 -0.77343,4.10373 -1.71659,3.26783 -5.28969,4.7597 -9.29306,3.88011 z m 4.31706,-4.08128 c 2.11337,-2.10328 1.70777,-8.0803 -0.62998,-9.28342 -1.67204,-0.86052 -3.52934,-0.23869 -4.35461,1.45796 -0.43423,0.8927 -0.55223,1.61014 -0.55223,3.35748 0,3.72338 1.0648,5.30726 3.56935,5.3094 0.92425,7.7e-4 1.26964,-0.14692 1.96747,-0.84142 z m -37.17124,4.00681 c -0.17718,-0.0712 -0.32215,-0.24917 -0.32215,-0.3956 0,-0.14643 1.04375,-1.92426 2.31943,-3.95074 1.27569,-2.02647 2.31933,-3.888 2.31921,-4.13673 -1.2e-4,-0.24872 -1.03621,-2.12026 -2.30243,-4.15898 -1.26621,-2.03871 -2.24503,-3.79883 -2.17514,-3.91137 0.0699,-0.11253 1.16776,-0.20461 2.43973,-0.20461 l 2.31266,0 1.14696,2.45939 c 0.63083,1.35267 1.27641,2.41645 1.43463,2.36397 0.15822,-0.0525 0.82699,-1.13036 1.48617,-2.39528 l 1.1985,-2.29984 2.38385,-0.0737 c 1.72025,-0.0532 2.38386,0.0117 2.38386,0.23327 0,0.16886 -0.97871,1.87559 -2.1749,3.79275 -1.1962,1.91716 -2.24648,3.67249 -2.33395,3.90073 -0.10183,0.2657 0.74275,1.86524 2.34769,4.4463 2.00184,3.21935 2.43301,4.07776 2.14066,4.26191 -0.41721,0.2628 -3.58734,0.32083 -4.22493,0.0773 -0.23204,-0.0886 -1.00111,-1.30986 -1.70906,-2.71388 -0.95059,-1.88521 -1.36837,-2.48571 -1.59762,-2.29635 -0.17074,0.14103 -0.82257,1.29624 -1.4485,2.56715 -0.76835,1.56005 -1.31218,2.35727 -1.67401,2.45396 -0.65172,0.17417 -3.50337,0.15999 -3.95066,-0.0196 z m -35.70533,-0.24808 c -0.25592,-0.2547 -0.21925,-15.79696 0.0382,-16.20089 0.15131,-0.23737 0.79361,-0.31056 2.25105,-0.25648 l 2.03934,0.0757 0,8.20746 0,8.20747 -2.07361,0.0737 c -1.1405,0.0405 -2.15525,-0.008 -2.255,-0.10687 z m 0,-21.03163 c -0.24997,-0.24877 -0.22136,-2.20003 0.0382,-2.60727 0.15131,-0.23738 0.79361,-0.31056 2.25105,-0.25649 l 2.03934,0.0757 0,1.41065 0,1.41066 -2.07361,0.0736 c -1.1405,0.0405 -2.15525,-0.008 -2.255,-0.10687 z"
         id="path4186"
         inkscape:connector-curvature="0" />
      <path
         style="fill:#5d5c5b"
         d="m -584.59474,532.10346 c -0.42523,-0.10839 -1.17662,-0.40614 -1.66976,-0.66168 -1.12273,-0.58177 -4.90194,-4.25054 -4.90198,-4.75871 -3e-5,-0.32935 3.7622,-0.37689 29.83042,-0.37689 28.40441,0 47.00026,-0.30432 54.82875,-0.89729 1.70091,-0.12883 7.8474,-0.34926 13.65885,-0.48984 15.75378,-0.38109 17.167,-0.45524 17.63817,-0.92543 0.35077,-0.35005 0.4025,-1.74405 0.40708,-10.97069 0.003,-5.81333 0.1453,-13.10887 0.31646,-16.21232 0.65525,-11.88064 1.17204,-34.71817 1.10566,-48.86006 -0.0431,-9.1725 -0.87413,-29.78891 -1.44232,-35.77941 -0.22399,-2.36159 -0.91889,-6.12589 -1.18283,-6.40745 -0.30441,-0.32471 -105.05494,-0.40808 -112.06764,-0.0892 -2.76399,0.12568 -5.44143,0.33978 -5.94987,0.47577 -1.65678,0.44312 -1.62544,0.13397 -1.55967,15.3825 0.0326,7.54702 0.16893,16.43416 0.30306,19.74921 0.13413,3.31504 0.41886,10.47092 0.63272,15.90196 0.21387,5.43103 0.49888,12.41379 0.63335,15.51723 0.29881,6.89613 0.4757,48.96304 0.20626,49.05243 -0.55415,0.18383 -1.05433,-0.0399 -2.48886,-1.11306 -2.25511,-1.6871 -3.40265,-3.17593 -3.69756,-4.79726 -0.13501,-0.74226 -0.2741,-10.61933 -0.31316,-22.23872 -0.0386,-11.49686 -0.20281,-23.55799 -0.36479,-26.8025 -1.21071,-24.25001 -1.46384,-33.51791 -1.68473,-61.68422 -0.0153,-1.94939 0.0839,-2.64173 0.49593,-3.46253 1.20429,-2.39891 -4.06733,-2.251 79.04472,-2.21774 45.72559,0.0183 45.80167,0.0192 46.84114,0.54696 0.57264,0.29075 1.84905,1.28711 2.83647,2.21413 2.64884,2.48685 3.35044,4.20893 4.37641,10.74192 0.7729,4.92149 1.00076,8.43376 1.83867,28.3414 0.49365,11.72851 -0.0165,44.59906 -0.97119,62.58191 -0.28078,5.2886 -0.36781,9.85836 -0.26864,14.10658 0.18151,7.7758 -0.0153,11.3378 -0.66216,11.98149 -0.4195,0.41747 -1.52425,0.48432 -12.49914,0.75629 -6.62143,0.16409 -13.95249,0.42462 -16.29125,0.57896 -4.91841,0.32458 -15.76529,0.8168 -17.65343,0.8011 -0.70871,-0.006 -16.42284,0.0394 -34.92028,0.10075 -18.49745,0.0613 -33.97963,0.0228 -34.40486,-0.0856 z m 23.48961,-60.31771 c -1.42521,-0.34698 -2.36594,-1.10551 -2.84316,-2.29249 -0.33258,-0.82723 -0.41588,-2.02888 -0.41588,-5.99926 0,-5.36654 -0.0147,-5.42452 -1.41743,-5.58203 -0.74867,-0.0841 -0.77559,-0.13349 -0.85043,-1.56159 l -0.0773,-1.47478 0.86332,0 c 1.24049,0 1.48183,-0.37984 1.48183,-2.33221 0,-1.96995 0.0627,-2.02801 2.19057,-2.02801 2.13095,0 2.19057,0.0557 2.19057,2.0479 0,2.01125 0.17798,2.24332 1.80906,2.35881 l 1.15466,0.0817 0,1.41066 0,1.41066 -1.28359,0.0806 c -0.70598,0.0443 -1.37103,0.21745 -1.47791,0.38472 -0.10688,0.16728 -0.1961,2.18726 -0.19827,4.48885 -0.005,5.06889 0.20533,5.67741 1.96328,5.68596 0.89554,0.004 1.11554,0.41671 1.12183,2.10263 0.003,0.68065 -0.12248,0.98111 -0.44749,1.07545 -1.03388,0.30011 -2.83581,0.36829 -3.76367,0.14239 z m 12.41026,0.0107 c -1.59992,-0.26844 -3.65656,-1.40569 -4.47624,-2.4752 -1.37933,-1.79977 -1.77184,-3.09093 -1.77944,-5.85348 -0.008,-2.98818 0.45013,-4.60436 1.80756,-6.37364 1.32357,-1.72513 3.12993,-2.51552 5.749,-2.51552 3.27367,0 5.12321,1.00724 6.43241,3.50302 0.59129,1.12722 0.67397,1.5928 0.6832,3.84725 l 0.0105,2.56483 -4.961,0.0697 -4.961,0.0697 0,0.66951 c 0,0.97341 0.90674,2.28015 1.91144,2.75463 1.15995,0.5478 3.30191,0.50818 5.04684,-0.0934 0.77959,-0.26875 1.48858,-0.40926 1.57554,-0.31223 0.23745,0.26491 0.74389,1.86049 0.74389,2.34367 0,0.60934 -2.03792,1.51323 -4.07177,1.80598 -1.93559,0.27862 -2.02245,0.2785 -3.71093,-0.005 z m 4.00377,-11.25139 c -0.0925,-1.9155 -2.05746,-3.09681 -3.78629,-2.27633 -0.88561,0.4203 -1.71249,1.74611 -1.71249,2.74577 0,0.52894 0.0915,0.5446 2.77042,0.47421 l 2.77043,-0.0728 -0.0421,-0.87084 z m 28.19308,11.24534 c -1.42292,-0.34764 -2.15991,-0.92069 -2.75349,-2.14101 -0.47627,-0.97912 -0.52848,-1.57483 -0.53204,-6.07023 -0.002,-2.74151 -0.0902,-5.11945 -0.19553,-5.28431 -0.10538,-0.16485 -0.59648,-0.33798 -1.09134,-0.38472 l -0.89975,-0.085 -0.0773,-1.47478 -0.0773,-1.47478 0.86332,0 c 1.24049,0 1.48183,-0.37984 1.48183,-2.33221 0,-1.96995 0.0627,-2.02801 2.19057,-2.02801 2.13095,0 2.19057,0.0557 2.19057,2.0479 0,2.01125 0.17798,2.24332 1.80906,2.35881 l 1.15466,0.0817 0,1.41066 0,1.41066 -1.35146,0.0775 c -1.69672,0.0973 -1.67367,0.0182 -1.56609,5.37241 0.0727,3.61781 0.14211,4.1812 0.57363,4.65506 0.30562,0.3356 0.80502,0.53911 1.32295,0.53911 0.92287,0 1.13997,0.39746 1.14631,2.0987 0.003,0.68065 -0.12248,0.98111 -0.44749,1.07545 -1.02666,0.29802 -2.83263,0.36901 -3.74113,0.14705 z m 11.33932,-0.0823 c -3.93603,-0.86479 -6.15186,-4.50922 -5.76808,-9.48692 0.41909,-5.43571 4.01946,-8.30163 9.49317,-7.55663 2.81732,0.38345 4.8574,2.05059 5.90768,4.82773 0.45162,1.19415 0.51819,1.84368 0.43372,4.23198 -0.0859,2.42909 -0.19343,2.9996 -0.77343,4.10373 -1.71659,3.26783 -5.28969,4.7597 -9.29306,3.88011 z m 4.31706,-4.08128 c 2.11337,-2.10328 1.70777,-8.0803 -0.62998,-9.28342 -1.67204,-0.86052 -3.52934,-0.23869 -4.35461,1.45796 -0.43423,0.8927 -0.55223,1.61014 -0.55223,3.35748 0,3.72338 1.0648,5.30726 3.56935,5.3094 0.92425,7.7e-4 1.26964,-0.14692 1.96747,-0.84142 z m -37.17124,4.00681 c -0.17718,-0.0712 -0.32215,-0.24917 -0.32215,-0.3956 0,-0.14643 1.04375,-1.92426 2.31943,-3.95074 1.27569,-2.02647 2.31933,-3.888 2.31921,-4.13673 -1.2e-4,-0.24872 -1.03621,-2.12026 -2.30243,-4.15898 -1.26621,-2.03871 -2.24503,-3.79883 -2.17514,-3.91137 0.0699,-0.11253 1.16776,-0.20461 2.43973,-0.20461 l 2.31266,0 1.14696,2.45939 c 0.63083,1.35267 1.27641,2.41645 1.43463,2.36397 0.15822,-0.0525 0.82699,-1.13036 1.48617,-2.39528 l 1.1985,-2.29984 2.38385,-0.0737 c 1.72025,-0.0532 2.38386,0.0117 2.38386,0.23327 0,0.16886 -0.97871,1.87559 -2.1749,3.79275 -1.1962,1.91716 -2.24648,3.67249 -2.33395,3.90073 -0.10183,0.2657 0.74275,1.86524 2.34769,4.4463 2.00184,3.21935 2.43301,4.07776 2.14066,4.26191 -0.41721,0.2628 -3.58734,0.32083 -4.22493,0.0773 -0.23204,-0.0886 -1.00111,-1.30986 -1.70906,-2.71388 -0.95059,-1.88521 -1.36837,-2.48571 -1.59762,-2.29635 -0.17074,0.14103 -0.82257,1.29624 -1.4485,2.56715 -0.76835,1.56005 -1.31218,2.35727 -1.67401,2.45396 -0.65172,0.17417 -3.50337,0.15999 -3.95066,-0.0196 z"
         id="path4184"
         inkscape:connector-curvature="0" />
      <path
         style="fill:#31312f"
         d="m -583.96816,531.95584 c -1.11685,-0.18346 -2.03569,-0.53307 -2.81715,-1.07193 -1.49063,-1.02784 -4.19504,-3.85095 -4.06396,-4.24232 0.0727,-0.2171 1.24687,-0.28241 4.21969,-0.23468 13.01821,0.20898 49.24797,0.21262 57.05684,0.006 11.77138,-0.31186 22.20751,-0.69525 27.57543,-1.01301 2.33875,-0.13845 9.28522,-0.35858 15.43658,-0.48918 9.44183,-0.20045 11.24533,-0.29818 11.57601,-0.62728 0.33769,-0.33607 0.39673,-1.97442 0.42812,-11.87934 0.02,-6.31922 0.17048,-13.74013 0.33435,-16.49092 0.81666,-13.70902 1.31404,-48.39345 0.85513,-59.63235 -0.75441,-18.47597 -1.1759,-24.82838 -1.90597,-28.72613 -0.28042,-1.49713 -0.44101,-1.84013 -0.96668,-2.06476 -0.43712,-0.1868 -9.91476,-0.20984 -30.91183,-0.0752 -19.47979,0.12494 -36.16487,0.0952 -46.77514,-0.0834 -22.51787,-0.37907 -39.22692,-0.0506 -40.82893,0.80271 -0.79809,0.42508 -1.18018,1.78783 -1.15342,4.11373 0.0138,1.19906 0.0863,8.58578 0.16115,16.41493 0.087,9.09822 0.38008,19.7879 0.81229,29.62382 1.034,23.53096 1.24937,31.66709 1.13378,42.8327 -0.0584,5.64263 -0.0354,12.85622 0.0512,16.0302 0.0866,3.17398 0.0594,5.97678 -0.0604,6.22844 -0.20486,0.43043 -0.28059,0.42282 -1.27712,-0.12824 -1.64051,-0.90718 -4.23729,-3.58054 -4.59162,-4.72703 -0.21985,-0.71135 -0.3673,-8.03464 -0.526,-26.1238 -0.12127,-13.82445 -0.27982,-25.48161 -0.35232,-25.90481 -0.0725,-0.4232 -0.30871,-5.84782 -0.52491,-12.05471 -0.2162,-6.2069 -0.45794,-11.80464 -0.5372,-12.43944 -0.0793,-0.6348 -0.23708,-9.17269 -0.35072,-18.9731 -0.17812,-15.3629 -0.15451,-17.97106 0.17133,-18.92277 0.84093,-2.45622 1.59179,-2.51642 29.70401,-2.3814 31.11154,0.14943 35.97774,0.15192 67.55612,0.0345 l 27.73926,-0.10315 0.99588,0.60307 c 0.54773,0.33169 1.77384,1.34458 2.72467,2.25087 2.30228,2.1944 3.02958,3.92175 3.90684,9.27884 0.95715,5.84492 1.36042,11.63798 1.95507,28.08492 0.57587,15.92747 0.22681,42.29232 -0.82176,62.06895 -0.17203,3.24451 -0.27891,10.16254 -0.23752,15.37339 0.0805,10.13463 -0.014,11.73958 -0.73299,12.45518 -0.55348,0.55084 -2.21157,0.64513 -18.42643,1.04778 -6.09494,0.15135 -12.53135,0.37494 -14.30314,0.49685 -7.89389,0.54317 -26.2033,0.85173 -52.3337,0.88195 -18.85539,0.0218 -28.78811,-0.0578 -29.89486,-0.23959 z m 22.68151,-60.38029 c -1.28226,-0.41691 -1.79365,-0.8271 -2.36459,-1.89662 -0.5341,-1.00052 -0.58408,-1.47993 -0.66765,-6.40425 -0.0999,-5.88574 0.0573,-5.37109 -1.72042,-5.63403 -0.3941,-0.0583 -0.53451,-0.30635 -0.59649,-1.05382 -0.0989,-1.19282 0.25021,-1.6569 1.32439,-1.76053 l 0.81838,-0.0789 0.12886,-1.92363 0.12886,-1.92362 1.91015,-0.0762 c 1.35397,-0.054 1.97189,0.0207 2.12219,0.25649 0.11663,0.18297 0.21383,1.10571 0.216,2.05053 l 0.004,1.71786 1.353,0.0775 1.353,0.0775 0.0779,1.34654 0.0779,1.34653 -1.02324,0 c -1.92235,0 -1.83855,-0.23422 -1.83855,5.13879 0,5.08244 0.1068,5.57001 1.24255,5.67258 0.82787,0.0748 0.94994,0.10392 1.27017,0.30345 0.39282,0.24476 0.43112,2.38149 0.0469,2.6178 -0.4484,0.27581 -3.15003,0.37792 -3.86326,0.14602 z m 11.81639,-0.11446 c -3.22289,-0.90912 -5.04341,-3.39507 -5.29019,-7.22385 -0.34107,-5.29144 1.88606,-8.70116 6.15002,-9.41566 3.25933,-0.54615 6.0934,0.67754 7.39386,3.19251 0.62939,1.21718 1.21669,4.95781 0.92587,5.89706 -0.12284,0.39675 -0.65725,0.45068 -5.08266,0.51297 -4.85555,0.0683 -4.94683,0.0797 -5.02514,0.627 -0.0439,0.30656 0.16588,1.0366 0.46612,1.6223 1.00344,1.95751 3.46936,2.53629 6.49053,1.52339 1.74863,-0.58625 1.85234,-0.5387 2.13872,0.98054 0.096,0.50947 0.0442,1.01319 -0.12509,1.21623 -0.87412,1.04822 -5.79485,1.7014 -8.04204,1.06751 z m 4.93376,-10.02559 c 0.43306,-0.51931 -0.0654,-2.20224 -0.87709,-2.96111 -0.79981,-0.7478 -2.55419,-0.85245 -3.53797,-0.21104 -0.73701,0.48052 -1.64814,2.51638 -1.40657,3.1429 0.21347,0.55365 5.36276,0.57952 5.82163,0.0292 z m 27.84135,10.1419 c -1.18813,-0.38706 -1.83256,-0.91634 -2.37911,-1.95401 -0.48493,-0.92068 -0.55213,-1.57226 -0.65494,-6.35109 -0.12643,-5.87652 0.0281,-5.37235 -1.72554,-5.63162 -0.3707,-0.0548 -0.53786,-0.30635 -0.5953,-0.89583 -0.1226,-1.25809 0.32779,-1.86925 1.37751,-1.86925 l 0.89293,0 0,-1.64616 c 0,-2.44899 0.008,-2.45757 2.19057,-2.45757 2.1815,0 2.19057,0.0101 2.19057,2.44416 l 0,1.63276 1.353,0.0775 1.353,0.0775 0.0779,1.34654 0.0779,1.34653 -1.02325,0 c -1.92182,0 -1.83855,-0.23178 -1.83855,5.11736 0,4.3882 0.0424,4.84415 0.48742,5.24499 0.26808,0.24145 0.79447,0.47158 1.16975,0.5114 0.37527,0.0398 0.78426,0.17756 0.90887,0.30608 0.34831,0.35928 0.41921,2.11022 0.0984,2.42953 -0.36433,0.36259 -3.10458,0.55015 -3.9611,0.27113 z m 11.33481,-0.10674 c -3.56904,-1.00818 -5.39926,-3.75278 -5.39926,-8.09672 0,-3.8875 1.38292,-6.59671 4.02364,-7.88252 1.27054,-0.61865 1.79574,-0.72179 3.68988,-0.72462 3.63078,-0.005 5.76101,1.28134 7.12795,4.30561 0.61015,1.34992 0.71362,1.92103 0.72665,4.01065 0.0186,2.97795 -0.4863,4.61411 -1.92607,6.24198 -0.56092,0.63419 -1.53699,1.40222 -2.16904,1.70673 -1.43281,0.69029 -4.41969,0.90613 -6.07375,0.43889 z m 4.08672,-3.26419 c 1.30936,-0.79448 1.84213,-2.23916 1.84213,-4.99517 0,-3.74442 -1.07276,-5.35717 -3.56266,-5.35597 -2.57234,0.001 -3.51316,1.46991 -3.51316,5.48422 0,2.24287 0.0876,2.84314 0.52419,3.59076 0.97716,1.67341 3.1047,2.24991 4.7095,1.27616 z m -36.79975,3.01994 c 0.002,-0.17634 1.04581,-1.99416 2.31921,-4.03962 1.2734,-2.04545 2.31245,-3.89213 2.30901,-4.10373 -0.003,-0.2116 -1.04406,-2.04532 -2.31248,-4.07493 -1.26843,-2.02962 -2.24443,-3.78974 -2.16889,-3.91137 0.16667,-0.26839 3.72344,-0.28975 4.14042,-0.0249 0.16316,0.10364 0.80615,1.2266 1.42887,2.49546 0.62272,1.26887 1.30103,2.33861 1.50735,2.3772 0.24426,0.0457 0.8247,-0.80395 1.66371,-2.43527 l 1.28857,-2.50544 1.90789,-0.0761 c 1.04933,-0.0419 2.0208,0.0362 2.15882,0.17359 0.2699,0.26861 0.23017,0.34311 -2.70916,5.07963 -1.60763,2.59059 -1.74957,2.9263 -1.46399,3.46253 0.17394,0.32659 1.28485,2.13239 2.4687,4.0129 1.18385,1.88051 2.08656,3.5252 2.00603,3.65488 -0.0805,0.12969 -1.06313,0.23579 -2.18355,0.23579 l -2.03713,0 -1.36237,-2.61701 c -0.74931,-1.43936 -1.50319,-2.65948 -1.67529,-2.71138 -0.18269,-0.0551 -0.81365,0.95386 -1.51627,2.42465 -0.66186,1.38546 -1.33285,2.60381 -1.4911,2.70745 -0.52042,0.34083 -4.28273,0.23151 -4.27835,-0.12431 z"
         id="path4182"
         inkscape:connector-curvature="0" />
      <path
         style="fill:#040402"
         d="m -583.95045,531.76468 c -0.9592,-0.14228 -1.84769,-0.5041 -2.74834,-1.1192 -1.47586,-1.00794 -4.09488,-3.64162 -3.85689,-3.87847 0.0837,-0.0833 2.56081,-0.13075 5.5048,-0.10555 42.32355,0.36224 64.48236,0.094 83.05357,-1.00534 2.33875,-0.13845 9.23905,-0.35805 15.334,-0.48799 6.09494,-0.12995 11.28024,-0.31281 11.5229,-0.40637 0.24265,-0.0936 0.52333,-0.41913 0.62373,-0.7235 0.1004,-0.30436 0.19676,-5.51634 0.21414,-11.58217 0.0174,-6.06583 0.16848,-13.39484 0.33578,-16.28669 0.82538,-14.26672 1.32546,-48.96423 0.86316,-59.88884 -0.52359,-12.37298 -0.82172,-18.40355 -1.07779,-21.80107 -0.27331,-3.6263 -0.88998,-7.8631 -1.27971,-8.79215 l -0.24526,-0.58469 -42.71819,-0.0361 c -23.49501,-0.0198 -48.92675,-0.0272 -56.515,-0.0163 -13.13853,0.0188 -19.01666,0.26399 -20.0946,0.83813 -0.78887,0.42018 -1.15882,1.79549 -1.13807,4.23092 0.19714,23.14912 0.36166,32.35129 0.71764,40.13963 0.23533,5.1489 0.61625,13.51667 0.84647,18.59504 0.29067,6.41171 0.43454,15.54299 0.47077,29.8803 0.0287,11.35579 0.13018,20.93544 0.22552,21.28811 0.23734,0.8779 -0.13722,1.38331 -0.85675,1.15603 -1.01063,-0.31923 -4.35174,-3.69126 -4.66815,-4.71136 -0.19898,-0.64147 -0.35839,-8.78934 -0.51002,-26.06849 -0.12132,-13.82445 -0.28019,-25.48161 -0.35303,-25.90481 -0.0729,-0.4232 -0.30934,-5.84782 -0.52553,-12.05471 -0.2162,-6.2069 -0.45744,-11.80464 -0.53609,-12.43944 -0.0787,-0.6348 -0.2358,-9.11694 -0.34922,-18.84922 -0.22296,-19.13097 -0.20753,-19.41092 1.1176,-20.27503 1.36541,-0.89038 5.26095,-1.00958 29.27055,-0.89572 32.16646,0.15256 34.57852,0.15304 66.40136,0.0133 l 28.13079,-0.12355 1.44954,0.99357 c 2.13023,1.46014 3.83729,3.44526 4.60598,5.35625 0.58924,1.46487 1.66162,7.12845 2.09826,11.08165 0.52234,4.72905 1.39687,26.42226 1.44239,35.77941 0.0669,13.74887 -0.46457,37.24583 -1.0993,48.60358 -0.16556,2.96238 -0.30751,10.33027 -0.31544,16.37309 l -0.0144,10.98695 -0.57609,0.46464 c -0.70454,0.56823 -2.41701,0.66734 -17.97933,1.04051 -6.09495,0.14615 -12.64733,0.37415 -14.56086,0.50666 -8.1276,0.56285 -25.38369,0.85601 -52.18714,0.88662 -15.73346,0.018 -29.24413,-0.0619 -30.02371,-0.17758 z m 22.01502,-60.70373 c -1.81325,-0.81961 -2.02079,-1.57001 -2.17103,-7.84965 l -0.12885,-5.38614 -1.03086,-0.12825 c -1.03086,-0.12824 -1.03086,-0.12824 -1.03086,-1.28241 0,-1.15418 0,-1.15418 1.03086,-1.28242 l 1.03086,-0.12824 0.0755,-1.99876 0.0755,-1.99876 1.85739,0.0751 1.85739,0.0751 0.12886,1.92363 0.12886,1.92362 1.36655,0.078 1.36655,0.078 -0.078,1.20442 -0.078,1.20442 -1.28857,0.12824 -1.28857,0.12825 -0.0698,4.88097 c -0.0787,5.50286 -0.0179,5.72553 1.63713,5.99299 0.96223,0.15551 1.01684,0.21544 1.15906,1.27207 0.13454,0.99949 0.0884,1.1319 -0.46777,1.34235 -1.00049,0.37856 -2.95315,0.25774 -4.08217,-0.25259 z m 12.00326,-0.0152 c -1.91804,-0.65567 -3.69282,-2.54686 -4.28156,-4.56239 -0.60411,-2.06815 -0.39708,-5.92152 0.40317,-7.504 1.62956,-3.2224 4.64194,-4.62129 8.31661,-3.86208 3.12179,0.64499 4.69937,2.77298 5.00224,6.74752 l 0.17101,2.24423 -4.87016,0.004 c -2.67859,0.002 -5.03042,0.10494 -5.22628,0.2284 -0.8476,0.53426 0.38904,3.2737 1.82657,4.04628 1.0966,0.58935 4.0485,0.5799 5.46903,-0.0175 1.15922,-0.48751 1.39536,-0.35024 1.60456,0.93274 0.13368,0.81982 0.0709,0.95761 -0.58921,1.29321 -1.98294,1.00812 -5.58665,1.21519 -7.82598,0.44968 z m 5.26206,-9.14427 c 0.53231,-0.20329 0.53689,-1.67585 0.009,-2.7837 -0.48303,-1.01304 -1.30226,-1.42084 -2.85439,-1.42084 -1.42097,0 -2.45584,0.8828 -2.94685,2.51383 -0.49619,1.6482 -0.18916,1.84639 2.86043,1.84639 1.38848,0 2.70795,-0.0701 2.93215,-0.15568 z m 27.73067,9.37298 c -0.86068,-0.36017 -1.51896,-0.98027 -2.0243,-1.90692 -0.33578,-0.61574 -0.44669,-1.84941 -0.55347,-6.15621 l -0.13353,-5.38614 -1.03086,-0.12825 c -1.03086,-0.12824 -1.03086,-0.12824 -1.03086,-1.28241 0,-1.15418 0,-1.15418 1.03086,-1.28242 l 1.03086,-0.12824 0.12885,-1.92362 0.12886,-1.92363 1.804,0 1.804,0 0.12886,1.92363 0.12886,1.92362 1.353,0.0775 1.353,0.0775 0,1.25561 0,1.25561 -1.353,0.0775 -1.353,0.0775 -0.0698,4.88097 c -0.0786,5.49744 -0.0167,5.72562 1.62613,5.99137 0.91253,0.14762 1.01694,0.2484 1.20863,1.16661 0.13106,0.6278 0.11074,1.10364 -0.0542,1.26774 -0.36649,0.36473 -3.34584,0.46777 -4.12294,0.14258 z m 11.6774,0.0265 c -3.31487,-0.78578 -5.25343,-3.70633 -5.28453,-7.96142 -0.0176,-2.40133 0.3675,-3.89501 1.39815,-5.42369 1.00595,-1.49203 2.42153,-2.41894 4.28091,-2.8031 4.08961,-0.84494 7.74169,1.00496 8.98639,4.55192 1.31102,3.73596 0.24576,8.49637 -2.34061,10.45967 -1.64731,1.25045 -4.62761,1.74854 -7.04031,1.17662 z m 4.28954,-3.03244 c 1.19717,-0.86623 1.81021,-2.49017 1.8086,-4.79097 -0.002,-2.64007 -0.35825,-3.88157 -1.41678,-4.93504 -0.74108,-0.73754 -1.01926,-0.84561 -2.1768,-0.84561 -1.73955,0 -2.7162,0.53513 -3.40343,1.86479 -1.18202,2.28701 -0.82045,6.98751 0.64271,8.35552 1.20896,1.13032 3.25096,1.28814 4.5457,0.35131 z m -36.84316,2.84042 c 0.002,-0.11173 1.04582,-1.8767 2.31921,-3.92216 1.2734,-2.04545 2.31537,-3.88168 2.31549,-4.08051 1.2e-4,-0.19883 -0.98554,-1.94054 -2.19035,-3.87047 -1.20482,-1.92993 -2.19057,-3.64278 -2.19057,-3.80634 0,-0.19847 0.6281,-0.29739 1.88834,-0.29739 l 1.88834,0 1.23603,2.56483 c 1.62112,3.36391 1.82658,3.36774 3.43447,0.0641 l 1.2171,-2.50072 1.99729,-0.0749 c 1.0985,-0.0412 1.99728,0.0251 1.99728,0.14739 0,0.12226 -0.98576,1.80415 -2.19057,3.73755 -1.20481,1.93339 -2.19057,3.76101 -2.19057,4.06137 0,0.30036 1.01475,2.16418 2.255,4.14182 1.24025,1.97764 2.29366,3.69049 2.3409,3.80634 0.0473,0.11586 -0.82509,0.21065 -1.93853,0.21065 l -2.02443,0 -1.3545,-2.71051 c -0.99119,-1.98349 -1.46785,-2.68863 -1.77712,-2.62895 -0.23873,0.0461 -0.99254,1.19757 -1.7324,2.64638 l -1.30978,2.56484 -1.99728,0.0749 c -1.09851,0.0412 -1.99551,-0.0165 -1.99335,-0.12824 z"
         id="path4180"
         inkscape:connector-curvature="0" />
    </g>
    <path
       inkscape:connector-curvature="0"
       id="path4172"
       d="m 447.07887,472.39782 c -46.2174,-43.97683 -85.13968,-81.95092 -86.49398,-84.38688 -1.35429,-2.43595 -2.46234,-7.5773 -2.46234,-11.42525 l 0,-6.99624 58.06544,-55.46814 58.06543,-55.46812 19.35516,19.10597 19.35515,19.10597 0.007,10.06368 c 0.007,11.60376 3.9101,19.26914 12.0618,23.69095 l 5.11465,2.77435 0.0103,46.47823 0.0103,46.47824 -8.10142,6.99238 c -7.95972,6.87007 -8.11281,7.19031 -8.75113,18.30816 -0.56068,9.76546 -0.0982,12.09011 3.37602,16.96766 5.87366,8.24631 14.16384,12.29852 24.85927,12.15113 16.63969,-0.22927 28.1889,-11.56229 28.1889,-27.6601 0,-8.90917 -3.10431,-15.26387 -10.26094,-21.00472 l -5.22317,-4.1899 0,-45.59106 0,-45.59109 17.7993,16.91084 17.7993,16.91086 -0.78447,7.78309 c -2.16327,21.46296 20.77818,36.08005 41.56859,26.48529 23.74625,-10.95885 20.02008,-44.28756 -5.68923,-50.88726 -3.61386,-0.92769 -8.80453,-1.27556 -11.53485,-0.77306 -4.50657,0.82945 -6.73321,-0.79575 -24.15222,-17.6283 l -19.18797,-18.542 -0.70875,-10.27306 c -1.16072,-16.82462 -10.05786,-25.24394 -27.81576,-26.3219 l -10.94855,-0.66461 -19.57105,-18.72455 -19.57106,-18.72456 19.93042,-18.8212 c 19.08185,-18.0199 20.23913,-18.8212 27.18262,-18.8212 3.98875,0 9.34288,1.0535 11.89809,2.3411 2.5552,1.28761 41.94262,38.00673 87.5276,81.59804 88.65729,84.77987 87.33961,83.2747 84.09336,96.05784 -0.77231,3.04125 -29.13984,31.23125 -86.6616,86.11926 l -85.51343,81.59804 -9.40229,0 -9.40227,0 -84.03163,-79.95788 z"
       style="fill:#cccccc" />
    <text
       sodipodi:linespacing="125%"
       id="text4262"
       y="359.10992"
       x="40.031361"
       style="font-style:normal;font-variant:normal;font-weight:bold;font-stretch:normal;font-size:60px;line-height:125%;font-family:sans-serif;-inkscape-font-specification:'sans-serif Bold';letter-spacing:0px;word-spacing:0px;fill:#000000;fill-opacity:1;stroke:none;stroke-width:1px;stroke-linecap:butt;stroke-linejoin:miter;stroke-opacity:1"
       xml:space="preserve"><tspan
         style="font-size:90px"
         id="tspan4266"
         y="359.10992"
         x="40.031361"
         sodipodi:role="line">Usando Git</tspan></text>
    <text
       sodipodi:linespacing="125%"
       id="text4268"
       y="392.74054"
       x="346.05554"
       style="font-style:normal;font-weight:normal;font-size:15px;line-height:125%;font-family:sans-serif;letter-spacing:0px;word-spacing:0px;fill:#000000;fill-opacity:1;stroke:none;stroke-width:1px;stroke-linecap:butt;stroke-linejoin:miter;stroke-opacity:1"
       xml:space="preserve"><tspan
         style="font-size:22.5px;text-align:end;text-anchor:end"
         y="392.74054"
         x="346.05554"
         id="tspan4270"
         sodipodi:role="line">Henrique Lobo Weissmann</tspan><tspan
         style="font-size:27.5px;text-align:end;text-anchor:end"
         id="tspan4272"
         y="420.86554"
         x="346.05554"
         sodipodi:role="line" /></text>
    <text
       xml:space="preserve"
       style="font-style:normal;font-weight:normal;font-size:15px;line-height:125%;font-family:sans-serif;letter-spacing:0px;word-spacing:0px;fill:#000000;fill-opacity:1;stroke:none;stroke-width:1px;stroke-linecap:butt;stroke-linejoin:miter;stroke-opacity:1"
       x="17.428572"
       y="276.93362"
       id="text4372"
       sodipodi:linespacing="125%"><tspan
         sodipodi:role="line"
         id="tspan4374"
         x="17.428572"
         y="276.93362"
         style="font-size:30px">Guia itexto</tspan></text>
    <text
       xml:space="preserve"
       style="font-style:normal;font-weight:normal;font-size:11.5731554px;line-height:125%;font-family:sans-serif;letter-spacing:0px;word-spacing:0px;fill:#000000;fill-opacity:1;stroke:none;stroke-width:1px;stroke-linecap:butt;stroke-linejoin:miter;stroke-opacity:1"
       x="152.9523"
       y="295.49274"
       id="text4149"
       sodipodi:linespacing="125%"
       transform="scale(0.99107106,1.0090094)"><tspan
         sodipodi:role="line"
         id="tspan4151"
         x="152.9523"
         y="295.49274"
         style="font-style:italic;font-variant:normal;font-weight:normal;font-stretch:normal;font-size:19.28859329px;font-family:sans-serif;-inkscape-font-specification:'sans-serif Italic'">Essencial</tspan></text>
  </g>
</svg>
